<svg xmlns="http://www.w3.org/2000/svg" viewBox="0 0 36 36">
  <!-- Twemoji Cherry SVG - Cross-platform compatible -->
  <path fill="#DD2E44" d="M31.5 14.5c0 2.485-2.015 4.5-4.5 4.5s-4.5-2.015-4.5-4.5S24.515 10 27 10s4.5 2.015 4.5 4.5z"/>
  <path fill="#DD2E44" d="M13.5 14.5c0 2.485-2.015 4.5-4.5 4.5S4.5 16.985 4.5 14.5 6.515 10 9 10s4.5 2.015 4.5 4.5z"/>
  <path fill="#C1694F" d="M18 2c-1.104 0-2 .896-2 2v8c0 1.104.896 2 2 2s2-.896 2-2V4c0-1.104-.896-2-2-2z"/>
  <path fill="#77B255" d="M20 4c0-1.104-.896-2-2-2s-2 .896-2 2c0 .738.405 1.376 1 1.723V8c0 .552.448 1 1 1s1-.448 1-1V5.723c.595-.347 1-.985 1-1.723z"/>
  <ellipse fill="#DD2E44" cx="27" cy="26" rx="8" ry="9"/>
  <ellipse fill="#DD2E44" cx="9" cy="26" rx="8" ry="9"/>
  <path fill="#C1694F" d="M18 2s-2 8-9 12c0 0 2 2 9 2s9-2 9-2c-7-4-9-12-9-12z"/>
</svg>
